<?xml version="1.0" encoding="UTF-8" standalone="no"?>
<!-- Created with Inkscape (http://www.inkscape.org/) -->

<svg
   width="11.66417mm"
   height="26.634823mm"
   viewBox="0 0 11.66417 26.634823"
   version="1.1"
   id="svg5"
   xml:space="preserve"
   xmlns="http://www.w3.org/2000/svg"
   xmlns:svg="http://www.w3.org/2000/svg"><defs
     id="defs2" /><path
     style="fill:#13255e;stroke-width:0.159862"
     d="m 0.14118,26.464733 -0.0945,-0.17008 0.10868,-0.37778 c 0.0598,-0.20779 0.23701,-1.06052 0.39387,-1.89496 0.15687,-0.83445 0.34552,-1.78268 0.41922,-2.10719 0.17879,-0.78703 0.79857,-3.90669 1.36928,-6.89228 L 2.80128,12.597393 1.89151,11.681913 0.98175,10.766423 0.49087,9.639733 0,8.513033 V 6.658706 4.804383 L 0.42075,3.825543 0.84152,2.846705 1.40165,2.206793 C 1.70972,1.854842 2.20704,1.366006 2.50681,1.120492 L 3.05183,0.6741 3.93284,0.33705 4.81384,0 h 1.10614 1.10613 l 0.42402,0.191971 c 0.23322,0.105585 0.76514,0.362165 1.18204,0.570178 l 0.758,0.378204 0.65371,0.736279 0.6537,0.736278 0.4833,1.095736 0.48329,1.095737 v 1.93861 1.93861 l -0.42368,0.92883 -0.42367,0.92883 -0.57138,0.67263 c -0.31427,0.36994 -0.74866,0.83703 -0.96533,1.03796 l -0.39395,0.36532 0.1295,0.64613 c 0.19485,0.97215 0.27938,1.40896 0.44637,2.30678 0.0837,0.44977 0.22165,1.10497 0.30666,1.45598 0.13146,0.54288 0.57829,2.76162 0.84911,4.21636 0.0432,0.23179 0.24612,1.28632 0.45105,2.34341 0.20492,1.05708 0.33802,1.9604 0.29577,2.00738 -0.0423,0.047 -0.002,0.18626 0.0904,0.30951 l 0.16725,0.22408 -0.088,0.25501 -0.088,0.25501 H 5.84126 0.23625 l -0.0945,-0.17009 z"
     id="path4483" /></svg>
