<svg viewBox="0 0 210 297" xmlns="http://www.w3.org/2000/svg">
    <path fill="#0A1628" d="m 104.29036,119.76862 -0.0945,-0.17008 0.10868,-0.37778 c 0.0598,-0.20779 0.23701,-1.06052 0.39387,-1.89496 0.15687,-0.83445 0.34552,-1.78268 0.41922,-2.10719 0.17879,-0.78703 0.79857,-3.90669 1.36928,-6.89228 l 0.46355,-2.42505 -0.90977,-0.91548 -0.90976,-0.91549 -0.49088,-1.12669 -0.49087,-1.1267 V 99.962593 98.10827 l 0.42075,-0.97884 0.42077,-0.978838 0.56013,-0.639912 c 0.30807,-0.351951 0.80539,-0.840787 1.10516,-1.086301 l 0.54502,-0.446392 0.88101,-0.33705 0.881,-0.33705 h 1.10614 1.10613 l 0.42402,0.191971 c 0.23322,0.105585 0.76514,0.362165 1.18204,0.570178 l 0.758,0.378204 0.65371,0.736279 0.6537,0.736278 0.4833,1.095736 0.48329,1.095737 v 1.93861 1.93861 l -0.42368,0.92883 -0.42367,0.92883 -0.57138,0.67263 c -0.31427,0.36994 -0.74866,0.83703 -0.96533,1.03796 l -0.39395,0.36532 0.1295,0.64613 c 0.19485,0.97215 0.27938,1.40896 0.44637,2.30678 0.0837,0.44977 0.22165,1.10497 0.30666,1.45598 0.13146,0.54288 0.57829,2.76162 0.84911,4.21636 0.0432,0.23179 0.24612,1.28632 0.45105,2.34341 0.20492,1.05708 0.33802,1.9604 0.29577,2.00738 -0.0423,0.047 -0.002,0.18626 0.0904,0.30951 l 0.16725,0.22408 -0.088,0.25501 -0.088,0.25501 h -5.60501 -5.60501 l -0.0945,-0.17009 z"/>
</svg>
