<svg viewBox="0 0 210 297" xmlns="http://www.w3.org/2000/svg">
    <path fill="#D4A017" d="m 97.73195,130.01105 c -0.08435,-0.11589 -0.270242,-0.77966 -0.413079,-1.47503 -0.287767,-1.4009 -0.443778,-2.14194 -1.685744,-8.0073 -0.471172,-2.22519 -0.981942,-4.67485 -1.135028,-5.4437 -0.153101,-0.76884 -0.314569,-1.46304 -0.358806,-1.54265 -0.04425,-0.0796 -0.182693,-0.70222 -0.307657,-1.38358 -0.124964,-0.68136 -0.399041,-2.03535 -0.609082,-3.00887 -0.210042,-0.97352 -0.512923,-2.45277 -0.673073,-3.28721 C 92.205925,104.07266 91.303573,99.909001 90.26613,95.326785 89.222078,90.7154 89.261509,90.896492 88.834452,88.752366 88.622076,87.686131 88.268091,86.081462 88.047831,85.186434 l -0.400496,-1.627322 0.09307,-0.269706 0.09308,-0.269708 22.176035,0.04271 22.17603,0.0427 -0.0183,0.505724 c -0.0222,0.615443 -0.42151,2.864154 -0.73334,4.130083 -0.12561,0.509939 -0.71423,3.164993 -1.30803,5.90012 -0.59382,2.735126 -1.1725,5.35225 -1.28598,5.815831 -0.11347,0.463581 -0.38718,1.715244 -0.60824,2.781484 -0.92246,4.44939 -1.2918,6.18085 -1.42037,6.65871 -0.0748,0.27814 -0.21279,0.96087 -0.30655,1.51717 -0.0938,0.5563 -0.30211,1.61832 -0.46297,2.36005 -0.65496,3.01984 -1.3634,6.36838 -1.8189,8.59731 -0.26527,1.29803 -0.54803,2.58763 -0.62838,2.86578 -0.0804,0.27814 -0.2379,1.03673 -0.35013,1.68574 -0.43309,2.50455 -0.72837,3.88544 -0.8741,4.08794 l -0.15166,0.21072 H 110.05198 97.885324 Z m 17.95095,-10.32735 0.088,-0.25501 -0.16725,-0.22408 c -0.092,-0.12325 -0.13268,-0.26253 -0.0904,-0.30951 0.0422,-0.047 -0.0909,-0.9503 -0.29577,-2.00738 -0.20493,-1.05709 -0.40789,-2.11162 -0.45106,-2.34341 -0.27081,-1.45474 -0.71764,-3.67348 -0.84911,-4.21636 -0.085,-0.35101 -0.22298,-1.00621 -0.30665,-1.45598 -0.16699,-0.89782 -0.25152,-1.33463 -0.44637,-2.30678 l -0.1295,-0.64613 0.39395,-0.36532 c 0.21667,-0.20093 0.65106,-0.66802 0.96533,-1.03796 l 0.57138,-0.67263 0.42367,-0.92883 0.42368,-0.92883 v -1.93861 -1.93861 l -0.48329,-1.095737 -0.4833,-1.095736 -0.6537,-0.736278 -0.65371,-0.736279 -0.758,-0.378204 c -0.4169,-0.208013 -0.94882,-0.464593 -1.18204,-0.570178 l -0.42402,-0.191971 h -1.10613 -1.10614 l -0.881,0.33705 -0.88101,0.33705 -0.54502,0.446392 c -0.29977,0.245514 -0.79709,0.73435 -1.10516,1.086301 l -0.56013,0.639912 -0.42077,0.978838 -0.42075,0.97884 v 1.854323 1.854327 l 0.49087,1.1267 0.49088,1.12669 0.90976,0.91549 0.90977,0.91548 -0.46355,2.42505 c -0.57071,2.98559 -1.1905,6.10525 -1.36928,6.89228 -0.0737,0.32451 -0.26236,1.27274 -0.41922,2.10719 -0.15686,0.83444 -0.33409,1.68717 -0.39387,1.89496 l -0.10868,0.37778 0.0945,0.17008 0.0945,0.17009 h 5.60501 5.60501 l 0.088,-0.25501 z"/>
</svg>
