<svg viewBox="0 0 210 297" xmlns="http://www.w3.org/2000/svg">
    <path fill="#0A1628" d="m 40.49385,218.78076 -0.101974,-0.11339 0.0034,-25.89029 0.0034,-25.89028 0.215861,-3.03435 c 0.326147,-4.58463 0.517944,-6.67228 0.681437,-7.41729 0.08139,-0.37087 0.220454,-1.24324 0.309039,-1.93861 0.08859,-0.69537 0.257565,-1.71947 0.375511,-2.27576 0.117946,-0.5563 0.328263,-1.58039 0.467371,-2.27576 0.378716,-1.89311 1.682197,-6.91016 2.036584,-7.83873 0.07077,-0.18543 0.246198,-0.71645 0.389842,-1.18003 0.958669,-3.09391 3.756366,-9.6196 5.511982,-12.85685 1.780858,-3.28378 3.823559,-6.49386 6.139307,-9.64789 l 1.670902,-2.27576 2.708649,-3.03434 c 4.422484,-4.95425 8.673615,-8.67142 13.824097,-12.08772 2.523939,-1.674121 9.594584,-5.442805 10.844206,-5.780014 l 0.38382,-0.103574 0.198277,1.062637 c 0.109046,0.58445 0.32641,1.669506 0.483028,2.411235 0.156617,0.741729 0.393962,1.917536 0.52743,2.612906 0.133469,0.69537 0.370252,1.87118 0.526188,2.61291 1.188997,5.65575 1.550866,7.33839 1.975846,9.18733 0.266391,1.15895 0.575927,2.56234 0.687868,3.11863 0.469278,2.33225 0.943558,4.56841 1.018978,4.80439 0.04445,0.13907 0.120598,0.45561 0.169216,0.70341 l 0.08841,0.45055 -2.032104,1.17338 c -2.806112,1.62031 -4.922097,3.14875 -7.432756,5.36887 -1.945313,1.7202 -4.068756,3.95807 -5.952323,6.27312 l -1.421945,1.74766 -1.169062,1.81201 c -5.016368,7.77517 -7.3752,14.35225 -8.707034,24.27755 l -0.169655,1.26432 -0.08779,27.39341 -0.08778,27.39341 -11.988117,0.0431 -11.988103,0.0432 z"/>
</svg>
