<?xml version="1.0" encoding="UTF-8" standalone="no"?>
<!-- Created with Inkscape (http://www.inkscape.org/) -->

<svg
   width="50.965919mm"
   height="123.70244mm"
   viewBox="0 0 50.965919 123.70244"
   version="1.1"
   id="svg5"
   xml:space="preserve"
   xmlns="http://www.w3.org/2000/svg"
   xmlns:svg="http://www.w3.org/2000/svg"><defs
     id="defs2" /><path
     style="fill:#13255e;stroke-width:0.159862"
     d="m 26.80615,96.856902 -0.0602,-26.84554 -0.15936,-1.68575 c -0.25469,-2.69406 -0.60422,-4.85514 -1.23366,-7.62765 -1.4226,-6.26606 -3.92237,-11.98941 -7.74951,-17.74286 C 14.4099,38.154182 9.72389,33.358852 5.183,30.244912 4.39089,29.701722 3.57225,29.129352 3.3638,28.972972 3.15535,28.816592 2.31322,28.317362 1.49241,27.863572 L 0,27.038492 0.0963,26.357342 c 0.0529,-0.37464 0.3587,-1.8949 0.67945,-3.37836 0.91633,-4.23772 1.81935,-8.44528 2.20698,-10.28306 0.19555,-0.92716 0.47132,-2.21676 0.61282,-2.86578 0.14152,-0.64901 0.3822,-1.82482 0.53486,-2.6129 C 4.28306,6.429152 4.55153,5.101622 4.72699,4.26718 4.90245,3.432735 5.15515,2.165915 5.28853,1.452024 L 5.53106,0.15404 5.71155,0.07702 5.89205,0 7.47045,0.752381 c 0.8681,0.413811 1.9877,0.945948 2.48798,1.182529 1.60447,0.758749 6.0115,3.347912 7.73448,4.544052 3.58755,2.49058 5.39065,3.96268 9.25662,7.55735 1.70342,1.58388 6.69166,7.2576 7.64386,8.69428 0.20845,0.31451 0.58566,0.84043 0.83826,1.1687 1.41091,1.83365 4.3898,6.60526 5.61869,9.00009 0.32585,0.63498 0.70038,1.35564 0.83232,1.60146 2.55232,4.75565 5.6446,13.47161 6.97664,19.66449 1.07757,5.00977 1.62154,9.02828 1.95105,14.41314 l 0.14957,2.44434 0.003,26.33982 0.003,26.339808 H 38.91601 26.8661 L 26.8059,96.856902 Z"
     id="path4481" /></svg>
