<svg viewBox="0 0 210 297" xmlns="http://www.w3.org/2000/svg">
    <path fill="#1A237E" d="m 155.40048,192.04659 -0.0602,-26.84554 -0.15936,-1.68575 c -0.25469,-2.69406 -0.60422,-4.85514 -1.23366,-7.62765 -1.4226,-6.26606 -3.92237,-11.98941 -7.74951,-17.74286 -3.19352,-4.80092 -7.87953,-9.59625 -12.42042,-12.71019 -0.79211,-0.54319 -1.61075,-1.11556 -1.8192,-1.27194 -0.20845,-0.15638 -1.05058,-0.65561 -1.87139,-1.1094 l -1.49241,-0.82508 0.0963,-0.68115 c 0.0529,-0.37464 0.3587,-1.8949 0.67945,-3.37836 0.91633,-4.23772 1.81935,-8.44528 2.20698,-10.28306 0.19555,-0.92716 0.47132,-2.21676 0.61282,-2.86578 0.14152,-0.64901 0.3822,-1.82482 0.53486,-2.6129 0.15265,-0.78809 0.42112,-2.11562 0.59658,-2.950062 0.17546,-0.834445 0.42816,-2.101265 0.56154,-2.815156 l 0.24253,-1.297984 0.18049,-0.07702 0.1805,-0.07702 1.5784,0.752381 c 0.8681,0.413811 1.9877,0.945948 2.48798,1.182529 1.60447,0.758749 6.0115,3.347912 7.73448,4.544052 3.58755,2.49058 5.39065,3.96268 9.25662,7.55735 1.70342,1.58388 6.69166,7.2576 7.64386,8.69428 0.20845,0.31451 0.58566,0.84043 0.83826,1.1687 1.41091,1.83365 4.3898,6.60526 5.61869,9.00009 0.32585,0.63498 0.70038,1.35564 0.83232,1.60146 2.55232,4.75565 5.6446,13.47161 6.97664,19.66449 1.07757,5.00977 1.62154,9.02828 1.95105,14.41314 l 0.14957,2.44434 0.003,26.33982 0.003,26.33981 h -12.04991 -12.04991 l -0.0602,-26.84554 z"/>
</svg>